<?xml version="1.0" encoding="UTF-8"?>
<svg version="1.1" xmlns="http://www.w3.org/2000/svg" width="500" height="500">
<path d="M0 0 C0 0.66 0 1.32 0 2 C0.804375 2.309375 0.804375 2.309375 1.625 2.625 C4.91978009 4.53250426 7.59363628 7.04819384 10 10 C10 10.66 10 11.32 10 12 C10.66 12 11.32 12 12 12 C13.72841997 14.42701479 15.32010974 16.8394543 16.875 19.375 C17.55381226 20.47884033 17.55381226 20.47884033 18.24633789 21.60498047 C24.17462921 31.41472437 26.84319304 40.748886 29 52 C29.28037109 53.25103516 29.28037109 53.25103516 29.56640625 54.52734375 C34.72839849 83.96465082 18.70783262 114.73936329 3.2265625 138.5234375 C2.82179688 139.01070312 2.41703125 139.49796875 2 140 C1.34 140 0.68 140 0 140 C-0.2475 140.721875 -0.495 141.44375 -0.75 142.1875 C-2.12269592 145.27606582 -3.72353296 147.51011418 -6 150 C-6.66 150 -7.32 150 -8 150 C-8.33837891 150.81210937 -8.33837891 150.81210937 -8.68359375 151.640625 C-10.40516979 154.72617967 -12.66895044 157.18131266 -15.0625 159.75 C-15.548396 160.2749707 -16.03429199 160.79994141 -16.53491211 161.34082031 C-20.74103391 165.82899727 -25.0628278 170.31068451 -30 174 C-30.66 174 -31.32 174 -32 174 C-32 174.66 -32 175.32 -32 176 C-32.66 176 -33.32 176 -34 176 C-34 176.66 -34 177.32 -34 178 C-36.35274929 179.98850389 -39.0232231 181.54487203 -41.625 183.1875 C-42.33785156 183.66380859 -43.05070312 184.14011719 -43.78515625 184.63085938 C-47.13753199 186.75608106 -49.16529699 188.00407669 -53.19921875 187.984375 C-61.94036328 184.91217358 -68.80944044 178.65348266 -75.453125 172.39453125 C-77.56405738 170.4098663 -79.71254849 168.54009392 -81.9375 166.6875 C-85.70374055 163.41661051 -89.10121995 159.83178339 -92.5 156.1875 C-93.04132568 155.61153076 -93.58265137 155.03556152 -94.14038086 154.44213867 C-98 150.24311672 -98 150.24311672 -98 148 C-98.66 148 -99.32 148 -100 148 C-101.93042416 145.55947958 -103.72951113 143.1163128 -105.5 140.5625 C-106.03318848 139.79695801 -106.56637695 139.03141602 -107.11572266 138.24267578 C-124.83085281 112.48910121 -138.54233177 81.91435659 -132.6875 50 C-129.92909085 36.01833389 -125.17458652 23.19189019 -116 12 C-115.34 12 -114.68 12 -114 12 C-113.79375 11.46375 -113.5875 10.9275 -113.375 10.375 C-111.46749574 7.08021991 -108.95180616 4.40636372 -106 2 C-105.34 2 -104.68 2 -104 2 C-104 1.34 -104 0.68 -104 0 C-98.58823529 -4 -98.58823529 -4 -96 -4 C-96 -4.66 -96 -5.32 -96 -6 C-63.5238677 -22.93691963 -30.32175495 -21.99203022 0 0 Z M-82 28 C-82 28.66 -82 29.32 -82 30 C-82.66 30 -83.32 30 -84 30 C-90.86345014 40.78523638 -90.86345014 40.78523638 -94 53 C-94.06832031 53.71285156 -94.13664062 54.42570312 -94.20703125 55.16015625 C-94.76069243 66.78704093 -90.19397118 77.51565729 -82.75 86.1875 C-74.66622635 94.78557572 -65.9841073 98.95759986 -54.09790039 99.35375977 C-41.34586146 99.48286804 -32.11949299 96.43201331 -22.61328125 87.84375 C-15.15266983 80.2474911 -9.99612724 69.82959844 -9.75 59 C-9.9367744 47.62543891 -13.93537954 37.88591027 -21.3125 29.3125 C-22.199375 28.549375 -23.08625 27.78625 -24 27 C-24.61230469 26.43539062 -25.22460938 25.87078125 -25.85546875 25.2890625 C-34.23682653 18.05269895 -44.15694643 15.23536838 -55.16015625 15.68359375 C-65.27804649 16.81089651 -74.23617388 21.47696801 -82 28 Z " fill="#800303" transform="translate(302,154)"/>
<path d="M0 0 C1.32 0.66 2.64 1.32 4 2 C4 2.66 4 3.32 4 4 C4.66 4 5.32 4 6 4 C7.68754653 6.36438624 9.23547057 8.71471902 10.75 11.1875 C11.19811035 11.91565918 11.6462207 12.64381836 12.10791016 13.39404297 C27.79073963 39.29816079 31.22856719 66.33348882 24.19140625 95.33203125 C20.57335121 108.37310964 14.11490307 120.23130431 6 131 C5.34 131.99 4.68 132.98 4 134 C3.34 134 2.68 134 2 134 C1.01 135.98 1.01 135.98 0 138 C-3.9282453 134.72646225 -7.77401983 131.37794615 -11.5 127.875 C-12.53640625 126.91207031 -12.53640625 126.91207031 -13.59375 125.9296875 C-15 124 -15 124 -14.71875 121.7578125 C-14.4815625 121.17773438 -14.244375 120.59765625 -14 120 C-13.34 120 -12.68 120 -12 120 C-11.73703125 119.43925781 -11.4740625 118.87851562 -11.203125 118.30078125 C-9.8877162 115.78527546 -8.34935318 113.53249757 -6.75 111.1875 C4.863277 93.07660664 7.91392426 71.65790167 4.3828125 50.53125 C1.57512797 38.90296361 -4.00398928 26.5410197 -12.06640625 17.578125 C-13 16 -13 16 -12.65234375 13.796875 C-12.43707031 13.20390625 -12.22179687 12.6109375 -12 12 C-11.34 12 -10.68 12 -10 12 C-10 11.34 -10 10.68 -10 10 C-9.34 10 -8.68 10 -8 10 C-8 9.34 -8 8.68 -8 8 C-7.34 8 -6.68 8 -6 8 C-6 7.34 -6 6.68 -6 6 C-5.34 6 -4.68 6 -4 6 C-4 5.34 -4 4.68 -4 4 C-3.34 4 -2.68 4 -2 4 C-2 3.34 -2 2.68 -2 2 C-1.34 2 -0.68 2 0 2 C0 1.34 0 0.68 0 0 Z " fill="#81090A" transform="translate(380,142)"/>
<path d="M0 0 C0.66 0 1.32 0 2 0 C2 0.66 2 1.32 2 2 C2.66 2 3.32 2 4 2 C4 2.66 4 3.32 4 4 C4.66 4 5.32 4 6 4 C6 4.66 6 5.32 6 6 C6.66 6 7.32 6 8 6 C8 6.66 8 7.32 8 8 C8.66 8 9.32 8 10 8 C10 8.66 10 9.32 10 10 C10.66 10 11.32 10 12 10 C12 10.66 12 11.32 12 12 C12.66 12 13.32 12 14 12 C14.6875 13.75 14.6875 13.75 15 16 C13.6875 18.25 13.6875 18.25 12 20 C11.34 20 10.68 20 10 20 C9.72800781 20.7321875 9.45601562 21.464375 9.17578125 22.21875 C8.05235412 24.87615902 6.75465247 27.0851793 5.1875 29.5 C-5.3741952 46.8273777 -7.78719142 67.67747818 -4.34765625 87.5390625 C-2.43691211 95.3296502 0.83003502 102.24281722 4.609375 109.26953125 C6 112 6 112 6 114 C6.66 114 7.32 114 8 114 C9.359375 115.609375 9.359375 115.609375 10.75 117.75 C11.21921875 118.44609375 11.6884375 119.1421875 12.171875 119.859375 C13 122 13 122 12.4765625 123.90234375 C10.44243837 126.79209153 8.1016126 129.30655909 5.625 131.8125 C4.90183594 132.5849707 4.90183594 132.5849707 4.1640625 133.37304688 C0.65288909 136.93669707 0.65288909 136.93669707 -2.0546875 137.19921875 C-5.01608013 135.37362129 -6.79956884 132.81008541 -8.75 130 C-9.18393066 129.38060547 -9.61786133 128.76121094 -10.06494141 128.12304688 C-25.38013298 105.53440108 -31.38038263 77.9474054 -26.26757812 51.1081543 C-25.85770751 49.06923345 -25.43124069 47.03449074 -25 45 C-24.70996094 43.53433594 -24.70996094 43.53433594 -24.4140625 42.0390625 C-21.48249028 29.36096446 -14.13331443 16.08072775 -6 6 C-5.34 6 -4.68 6 -4 6 C-3.566875 5.071875 -3.566875 5.071875 -3.125 4.125 C-2 2 -2 2 0 0 Z " fill="#810A0A" transform="translate(120,144)"/>
<path d="M0 0 C0 0.66 0 1.32 0 2 C-4.80451529 3.34526428 -9.48723556 4.23551947 -14.4375 4.875 C-35.11800734 7.27751472 -35.11800734 7.27751472 -52 18 C-15.85698208 30.26573006 23.80958978 30.033279 61.56982422 28.16894531 C64.66207111 28.0166439 67.75386064 27.88904292 70.84765625 27.7734375 C84.79393667 27.222499 98.62045965 26.19407213 112.25 23.0625 C112.9411792 22.90483154 113.6323584 22.74716309 114.34448242 22.5847168 C118.56226792 21.54908824 122.15771708 19.99503152 126 18 C126.66 18 127.32 18 128 18 C118.47304148 6.1734308 96.17515315 5.03747722 81.94140625 3.39453125 C79 3 79 3 76 2 C76.33 1.01 76.66 0.02 77 -1 C85.82517557 -1.33025605 94.29371853 -0.37434114 103 1 C103.67820801 1.10183594 104.35641602 1.20367187 105.05517578 1.30859375 C126.93302679 4.64667886 126.93302679 4.64667886 134 13 C134.5625 16.4375 134.5625 16.4375 134 20 C127.0161932 29.38449039 113.17379735 31.98473276 102.3125 34.0625 C101.43674316 34.23241455 100.56098633 34.4023291 99.65869141 34.57739258 C80.64121236 38.20965086 61.8575224 39.17869954 42.54101562 39.13037109 C40.00124143 39.12500262 37.46164398 39.13036444 34.921875 39.13671875 C-37.04753734 39.1683981 -37.04753734 39.1683981 -57 22 C-58.56935594 18.86128812 -58.35201103 16.46144178 -58 13 C-51.93317013 4.30421053 -39.96354001 3.15437261 -30.26391602 1.37231445 C-24.17427096 0.30952191 -18.07349968 -0.62383406 -11.9375 -1.375 C-11.19435547 -1.47184082 -10.45121094 -1.56868164 -9.68554688 -1.66845703 C-5.87024297 -2.08714485 -3.2297955 -2.23149507 0 0 Z " fill="#841C1C" transform="translate(212,334)"/>
<path d="M0 0 C4.30574046 1.48009828 5.91519707 4.58017313 8 8.375 C8.34885254 9.00204834 8.69770508 9.62909668 9.05712891 10.27514648 C16.26667137 23.61060921 19.24837453 37.96637706 17 53 C16.84789062 54.08925781 16.69578125 55.17851562 16.5390625 56.30078125 C14.6518465 67.12163663 10.07762024 76.88356965 4 86 C3.34 86 2.68 86 2 86 C1.505 86.99 1.505 86.99 1 88 C-1.37432028 85.77048251 -3.72050145 83.513408 -6.0625 81.25 C-7.07666992 80.29867187 -7.07666992 80.29867187 -8.11132812 79.328125 C-8.74619141 78.709375 -9.38105469 78.090625 -10.03515625 77.453125 C-10.6269165 76.88754883 -11.21867676 76.32197266 -11.82836914 75.73925781 C-13 74 -13 74 -12.75537109 71.92773438 C-11.84441175 69.60293316 -10.74324034 67.45031137 -9.5625 65.25 C-3.83654505 53.8311881 -3.15757702 41.18568227 -6.75 28.9375 C-7.9817703 25.37022256 -9.35311092 22.15990991 -11.3125 18.9375 C-13 16 -13 16 -12.75 13.5625 C-12.5025 13.046875 -12.255 12.53125 -12 12 C-11.34 12 -10.68 12 -10 12 C-10 11.34 -10 10.68 -10 10 C-9.34 10 -8.68 10 -8 10 C-8 9.34 -8 8.68 -8 8 C-7.34 8 -6.68 8 -6 8 C-6 7.34 -6 6.68 -6 6 C-5.34 6 -4.68 6 -4 6 C-4 5.34 -4 4.68 -4 4 C-3.34 4 -2.68 4 -2 4 C-2 3.34 -2 2.68 -2 2 C-1.34 2 -0.68 2 0 2 C0 1.34 0 0.68 0 0 Z " fill="#800707" transform="translate(354,168)"/>
<path d="M0 0 C0.66 0 1.32 0 2 0 C2 0.66 2 1.32 2 2 C2.66 2 3.32 2 4 2 C4 2.66 4 3.32 4 4 C4.66 4 5.32 4 6 4 C6 4.66 6 5.32 6 6 C6.66 6 7.32 6 8 6 C8 6.66 8 7.32 8 8 C8.66 8 9.32 8 10 8 C10 8.66 10 9.32 10 10 C10.66 10 11.32 10 12 10 C12 10.66 12 11.32 12 12 C12.66 12 13.32 12 14 12 C15.17635584 14.84909304 15.05626279 15.86385557 13.85546875 18.76953125 C13.02982422 20.27580078 13.02982422 20.27580078 12.1875 21.8125 C8.29917018 28.95187993 6.62470143 35.25881101 6.6875 43.3125 C6.69241455 44.06088135 6.6973291 44.8092627 6.70239258 45.58032227 C6.89733238 54.81647006 9.58400903 61.82235726 14.20703125 69.7734375 C15 72 15 72 14.3828125 74.03515625 C12.79091813 76.29708526 11.05162127 78.14005318 9.0625 80.0625 C8.37285156 80.73410156 7.68320313 81.40570313 6.97265625 82.09765625 C5.99619141 83.03931641 5.99619141 83.03931641 5 84 C4.50371094 84.59683594 4.00742188 85.19367188 3.49609375 85.80859375 C2 87 2 87 0.0625 87.08203125 C-3.08105722 85.43285445 -4.3641182 82.7080474 -6 79.6875 C-6.34885254 79.05303955 -6.69770508 78.4185791 -7.05712891 77.76489258 C-16.02278721 61.00510542 -18.09108083 42.71520548 -12.9921875 24.375 C-10.17373185 15.86363725 -6.44201505 6.44201505 0 0 Z " fill="#800809" transform="translate(144,168)"/>
<path d="M0 0 C3.5 1.75 3.5 1.75 6 4 C7.11375 4.9590625 7.11375 4.9590625 8.25 5.9375 C11.96773576 10.31911715 12.57173682 14.7460205 12.4375 20.3671875 C11.52541827 25.85596505 8.48746613 30.10113182 4.1015625 33.44921875 C-0.45797625 36.0173384 -4.83677475 36.9542926 -10 36 C-16.08658596 34.26589721 -19.68836405 30.87135701 -22.93359375 25.50390625 C-25.24110126 20.08591242 -24.76439428 15.13225772 -22.8125 9.6875 C-16.68174606 0.59707175 -10.59974461 -1.16511938 0 0 Z " fill="#F80606" transform="translate(256,194)"/>
<path d="M0 0 C0 0.66 0 1.32 0 2 C-4.80451529 3.34526428 -9.48723556 4.23551947 -14.4375 4.875 C-35.11800734 7.27751472 -35.11800734 7.27751472 -52 18 C-24.90572319 27.19489032 2.65964753 27.8765514 31 29 C31 29.33 31 29.66 31 30 C19.45 30 7.9 30 -4 30 C-3.01 30.33 -2.02 30.66 -1 31 C-1.33 32.32 -1.66 33.64 -2 35 C1.63 35.33 5.26 35.66 9 36 C9 36.66 9 37.32 9 38 C-0.74504385 37.42941192 -10.34704869 36.47679397 -20 35 C-20.65790527 34.89961426 -21.31581055 34.79922852 -21.99365234 34.69580078 C-34.29612582 32.76395822 -47.31403775 30.33443263 -57 22 C-58.56935594 18.86128812 -58.35201103 16.46144178 -58 13 C-51.93317013 4.30421053 -39.96354001 3.15437261 -30.26391602 1.37231445 C-24.17427096 0.30952191 -18.07349968 -0.62383406 -11.9375 -1.375 C-11.19435547 -1.47184082 -10.45121094 -1.56868164 -9.68554688 -1.66845703 C-5.87024297 -2.08714485 -3.2297955 -2.23149507 0 0 Z " fill="#892727" transform="translate(212,334)"/>
<path d="M0 0 C27.72 0 55.44 0 84 0 C82.68 0.66 81.36 1.32 80 2 C78.78130071 4.50447516 78.78130071 4.50447516 78 7 C77 8 77 8 74.27734375 8.09765625 C72.62412109 8.08025391 72.62412109 8.08025391 70.9375 8.0625 C69.83277344 8.05347656 68.72804688 8.04445313 67.58984375 8.03515625 C66.73519531 8.02355469 65.88054687 8.01195312 65 8 C65 8.66 65 9.32 65 10 C59.5048047 10.02493457 54.00964318 10.04296987 48.5144043 10.05493164 C46.6494896 10.0599245 44.78457874 10.06672112 42.91967773 10.07543945 C23.03989442 10.16597155 23.03989442 10.16597155 14 9 C14 8.34 14 7.68 14 7 C10.37 6.67 6.74 6.34 3 6 C3.33 4.68 3.66 3.36 4 2 C2.68 1.67 1.36 1.34 0 1 C0 0.67 0 0.34 0 0 Z " fill="#7E0909" transform="translate(207,363)"/>
<path d="M0 0 C6.62960259 -0.22992841 13.01578301 0.05783131 19.59375 0.9375 C29.88867227 2.2310227 40.20252641 2.67643704 50.5625 3.125 C52.46031188 3.21168476 54.35809864 3.29892141 56.25585938 3.38671875 C60.83697609 3.59748275 65.41836354 3.80086801 70 4 C70 4.33 70 4.66 70 5 C58.45 5 46.9 5 35 5 C35.99 5.33 36.98 5.66 38 6 C37.67 7.32 37.34 8.64 37 10 C42.445 10.495 42.445 10.495 48 11 C48 11.66 48 12.32 48 13 C39.38250709 12.49543185 30.92015953 11.67931427 22.375 10.46875 C19.62558308 10.08688654 16.88611684 9.77611168 14.125 9.5 C13.09375 9.335 12.0625 9.17 11 9 C10.67 8.34 10.34 7.68 10 7 C6.97065509 6.34227572 6.97065509 6.34227572 4 6 C4 5.34 4 4.68 4 4 C2.68 3.67 1.36 3.34 0 3 C0 2.01 0 1.02 0 0 Z " fill="#7D0A0A" transform="translate(173,359)"/>
<path d="M0 0 C14.61633995 -0.54697322 33.43952635 0.97312282 47 7 C45.02 7.99 45.02 7.99 43 9 C43 9.66 43 10.32 43 11 C44.32 11.33 45.64 11.66 47 12 C42.96833031 13.62262261 40.26596655 12.24515897 36.3125 10.8125 C25.94939818 7.26483869 15.19237165 5.91886683 4.3815918 4.40136719 C2 4 2 4 -1 3 C-0.67 2.01 -0.34 1.02 0 0 Z " fill="#740507" transform="translate(289,333)"/>
<path d="M0 0 C0 0.66 0 1.32 0 2 C-1.98 2.33 -3.96 2.66 -6 3 C-5.505 4.485 -5.505 4.485 -5 6 C-7 6 -9 6 -11 6 C-11 6.66 -11 7.32 -11 8 C-6.05 7.67 -1.1 7.34 4 7 C4 7.33 4 7.66 4 8 C-10.12065745 10.70403219 -23.60899401 12.65413664 -38 12 C-38 11.67 -38 11.34 -38 11 C-37.16855469 10.98582031 -36.33710938 10.97164063 -35.48046875 10.95703125 C-34.39378906 10.90933594 -33.30710937 10.86164063 -32.1875 10.8125 C-31.10855469 10.77769531 -30.02960938 10.74289062 -28.91796875 10.70703125 C-25.7965262 10.27617783 -25.7965262 10.27617783 -24.11328125 7.51171875 C-22.9324642 5.30552731 -22.9324642 5.30552731 -23 4 C-26.3 3.67 -29.6 3.34 -33 3 C-33 2.67 -33 2.34 -33 2 C-32.43079834 1.97494385 -31.86159668 1.9498877 -31.27514648 1.92407227 C-28.66242687 1.80706106 -26.04997638 1.6848172 -23.4375 1.5625 C-22.09461914 1.50352539 -22.09461914 1.50352539 -20.72460938 1.44335938 C-13.78147032 1.11273371 -6.94551772 -0.16940287 0 0 Z " fill="#851818" transform="translate(310,360)"/>
<path d="M0 0 C0 0.33 0 0.66 0 1 C-11.55 1 -23.1 1 -35 1 C-34.01 1.33 -33.02 1.66 -32 2 C-32.33 3.32 -32.66 4.64 -33 6 C-27.555 6.495 -27.555 6.495 -22 7 C-22 7.66 -22 8.32 -22 9 C-29.40394918 8.5664868 -36.76746208 7.99392621 -44.125 7.0625 C-45.34445313 6.90910156 -46.56390625 6.75570313 -47.8203125 6.59765625 C-51 6 -51 6 -55 4 C-50.71 4 -46.42 4 -42 4 C-41.67 2.68 -41.34 1.36 -41 0 C-31.00530066 -4.99734967 -10.93188579 -0.54027196 0 0 Z " fill="#882A2B" transform="translate(243,363)"/>
<path d="M0 0 C-1.28965176 1.37562854 -2.62689293 2.70766393 -4 4 C-4.66 4 -5.32 4 -6 4 C-6 4.66 -6 5.32 -6 6 C-11.10404512 7.9656355 -15.97992306 8.60012011 -21.375 9.125 C-22.20644531 9.21136719 -23.03789062 9.29773438 -23.89453125 9.38671875 C-25.92907147 9.59718843 -27.9644597 9.79943314 -30 10 C-29.34 8.68 -28.68 7.36 -28 6 C-26.35 6.33 -24.7 6.66 -23 7 C-23 6.01 -23 5.02 -23 4 C-24.98 4 -26.96 4 -29 4 C-29 3.67 -29 3.34 -29 3 C-25.04 3 -21.08 3 -17 3 C-17 2.34 -17 1.68 -17 1 C-15.10440036 0.83069605 -13.20850769 0.66467136 -11.3125 0.5 C-10.25675781 0.4071875 -9.20101563 0.314375 -8.11328125 0.21875 C-5.39363975 0.0276585 -2.72460144 -0.04043935 0 0 Z " fill="#7B0303" transform="translate(327,359)"/>
<path d="M0 0 C0 0.66 0 1.32 0 2 C-10.11356058 4.83179696 -20.57543348 5.92159657 -31 7 C-31 6.34 -31 5.68 -31 5 C-29.02 5 -27.04 5 -25 5 C-25 4.34 -25 3.68 -25 3 C-25.66 2.34 -26.32 1.68 -27 1 C-23.25275342 0.43800236 -19.50204084 -0.09603845 -15.75 -0.625 C-14.68652344 -0.78484375 -13.62304688 -0.9446875 -12.52734375 -1.109375 C-11.50253906 -1.25117188 -10.47773438 -1.39296875 -9.421875 -1.5390625 C-8.00793457 -1.74329834 -8.00793457 -1.74329834 -6.56542969 -1.95166016 C-3.75660489 -2.00458624 -2.36155341 -1.46260818 0 0 Z " fill="#842928" transform="translate(212,334)"/>
<path d="M0 0 C1.73030291 0.28484846 3.45920714 0.57819938 5.1875 0.875 C6.15042969 1.03742188 7.11335938 1.19984375 8.10546875 1.3671875 C10.91032604 1.98039517 13.37224747 2.85666343 16 4 C14.02 4.99 14.02 4.99 12 6 C12 6.66 12 7.32 12 8 C13.32 8.33 14.64 8.66 16 9 C11.82183505 10.79682741 8.16651806 9.01913834 4.125 7.625 C-0.57940347 6.03650013 -5.05337997 4.66678577 -10 4 C-10 3.67 -10 3.34 -10 3 C-3.25 2.875 -3.25 2.875 -1 4 C-0.67 2.68 -0.34 1.36 0 0 Z " fill="#8E3232" transform="translate(320,336)"/>
<path d="M0 0 C0.12375 0.78375 0.2475 1.5675 0.375 2.375 C0.79117993 5.14057822 0.79117993 5.14057822 3 7 C-3.04057576 9.27057103 -8.56318772 10.48914188 -15 11 C-14.34 10.34 -13.68 9.68 -13 9 C-11.68 9 -10.36 9 -9 9 C-9 8.34 -9 7.68 -9 7 C-6.5 5.375 -6.5 5.375 -4 4 C-7.63 4 -11.26 4 -15 4 C-11.84531378 2.42265689 -9.71638105 1.57903681 -6.375 0.875 C-5.59898437 0.70742188 -4.82296875 0.53984375 -4.0234375 0.3671875 C-2 0 -2 0 0 0 Z " fill="#8A1918" transform="translate(330,356)"/>
<path d="M0 0 C1.953125 0.6796875 1.953125 0.6796875 4 2 C4.609375 4.3828125 4.609375 4.3828125 4.75 7.125 C4.80671875 8.03507812 4.8634375 8.94515625 4.921875 9.8828125 C4.94765625 10.58148438 4.9734375 11.28015625 5 12 C2.6568787 11.74438677 0.32156597 11.40729228 -2 11 C-3.52150158 7.95699684 -3.23899393 5.345915 -3 2 C-2.01 1.34 -1.02 0.68 0 0 Z " fill="#7F181A" transform="translate(157,345)"/>
<path d="M0 0 C0 0.66 0 1.32 0 2 C-1.98 2.33 -3.96 2.66 -6 3 C-5.67 3.99 -5.34 4.98 -5 6 C-7.33333333 6 -9.66666667 6 -12 6 C-12.33 5.34 -12.66 4.68 -13 4 C-13.60585938 4.01160156 -14.21171875 4.02320313 -14.8359375 4.03515625 C-20.95924948 4.10109961 -26.92093331 3.72431433 -33 3 C-33 2.67 -33 2.34 -33 2 C-32.43079834 1.97494385 -31.86159668 1.9498877 -31.27514648 1.92407227 C-28.66242687 1.80706106 -26.04997638 1.6848172 -23.4375 1.5625 C-22.09461914 1.50352539 -22.09461914 1.50352539 -20.72460938 1.44335938 C-13.78147032 1.11273371 -6.94551772 -0.16940287 0 0 Z " fill="#972F30" transform="translate(310,360)"/>
<path d="M0 0 C0.66 0.66 1.32 1.32 2 2 C1.34 2 0.68 2 0 2 C0 2.99 0 3.98 0 5 C-3.22791555 7.1519437 -4.28400809 7.20086443 -8 7 C-8.66 5.68 -9.32 4.36 -10 3 C-7.30045271 -0.81112559 -4.38454651 -0.39859514 0 0 Z " fill="#7C1414" transform="translate(339,355)"/>
<path d="M0 0 C-0.33 0.99 -0.66 1.98 -1 3 C-2.98 3 -4.96 3 -7 3 C-7 3.66 -7 4.32 -7 5 C-10.3 5.33 -13.6 5.66 -17 6 C-16.67 4.68 -16.34 3.36 -16 2 C-10.91235741 -0.60904748 -5.56726505 -0.198045 0 0 Z " fill="#831B1A" transform="translate(188,336)"/>
<path d="M0 0 C0.66 0.33 1.32 0.66 2 1 C2.45986864 11.74730045 1.13405739 21.50755115 -1 32 C-1.66 32 -2.32 32 -3 32 C-2.85831863 30.56208484 -2.71148957 29.1246763 -2.5625 27.6875 C-2.48128906 26.88699219 -2.40007812 26.08648437 -2.31640625 25.26171875 C-2 23 -2 23 -1 20 C-0.8535286 18.44733347 -0.75305926 16.89004338 -0.68359375 15.33203125 C-0.64169922 14.43935547 -0.59980469 13.54667969 -0.55664062 12.62695312 C-0.51732422 11.69818359 -0.47800781 10.76941406 -0.4375 9.8125 C-0.39431641 8.87212891 -0.35113281 7.93175781 -0.30664062 6.96289062 C-0.20061335 4.64207146 -0.09854971 2.32114675 0 0 Z " fill="#A35455" transform="translate(330,210)"/>
<path d="M0 0 C0.33 1.32 0.66 2.64 1 4 C0.34 4 -0.32 4 -1 4 C-0.79375 4.556875 -0.5875 5.11375 -0.375 5.6875 C0.10695211 8.659538 -0.73434972 10.31979941 -2 13 C-4.31 13 -6.62 13 -9 13 C-7.35 10.03 -5.7 7.06 -4 4 C-3.34 4 -2.68 4 -2 4 C-1.34 2.68 -0.68 1.36 0 0 Z " fill="#7E0909" transform="translate(190,162)"/>
<path d="M0 0 C1.32 0.66 2.64 1.32 4 2 C3.67 2.66 3.34 3.32 3 4 C2.01 4.33 1.02 4.66 0 5 C-1.70779973 6.62449243 -3.37550757 8.29220027 -5 10 C-5.66 10.66 -6.32 11.32 -7 12 C-7.99 12 -8.98 12 -10 12 C-10 11.34 -10 10.68 -10 10 C-9.34 10 -8.68 10 -8 10 C-8 9.34 -8 8.68 -8 8 C-7.34 8 -6.68 8 -6 8 C-6 7.34 -6 6.68 -6 6 C-5.34 6 -4.68 6 -4 6 C-4 5.34 -4 4.68 -4 4 C-3.34 4 -2.68 4 -2 4 C-2 3.34 -2 2.68 -2 2 C-1.34 2 -0.68 2 0 2 C0 1.34 0 0.68 0 0 Z " fill="#8E3538" transform="translate(354,168)"/>
<path d="M0 0 C0.556875 0.7734375 0.556875 0.7734375 1.125 1.5625 C-1.125 4.125 -1.125 4.125 -3.875 6.5625 C-6.125 6.5625 -6.125 6.5625 -7.875 5.5625 C-8.875 2.5625 -8.875 2.5625 -7.875 -0.4375 C-2.33653846 -1.79134615 -2.33653846 -1.79134615 0 0 Z " fill="#801516" transform="translate(123.875,274.4375)"/>
<path d="M0 0 C-0.33 1.65 -0.66 3.3 -1 5 C-5.29 5.66 -9.58 6.32 -14 7 C-14 6.34 -14 5.68 -14 5 C-12.02 5 -10.04 5 -8 5 C-8 4.34 -8 3.68 -8 3 C-8.66 2.34 -9.32 1.68 -10 1 C-6.59437148 0.22157062 -3.49234244 -0.09978121 0 0 Z " fill="#8F3C3F" transform="translate(195,334)"/>
<path d="M0 0 C0.66 0 1.32 0 2 0 C2 0.66 2 1.32 2 2 C2.66 2 3.32 2 4 2 C4 2.66 4 3.32 4 4 C4.66 4 5.32 4 6 4 C6 4.66 6 5.32 6 6 C6.66 6 7.32 6 8 6 C7.67 6.66 7.34 7.32 7 8 C2.94393835 7.53199289 -0.46588679 7.12046792 -4 5 C-2.71937515 3.2925002 -1.38232443 1.62626404 0 0 Z " fill="#8E3032" transform="translate(144,168)"/>
<path d="M0 0 C4.67461851 -0.32613618 7.16674383 0.29417212 11 3 C9.75 4.5 9.75 4.5 8 6 C6.68 6 5.36 6 4 6 C4 5.34 4 4.68 4 4 C2.68 3.67 1.36 3.34 0 3 C0 2.01 0 1.02 0 0 Z " fill="#7C0101" transform="translate(173,359)"/>
<path d="M0 0 C3.3 0 6.6 0 10 0 C10 0.33 10 0.66 10 1 C8.02 1 6.04 1 4 1 C4 1.66 4 2.32 4 3 C8.455 2.505 8.455 2.505 13 2 C13 2.99 13 3.98 13 5 C11.22880197 4.85866501 9.45804713 4.71176792 7.6875 4.5625 C6.70136719 4.48128906 5.71523438 4.40007812 4.69921875 4.31640625 C2 4 2 4 -1 3 C-0.67 2.01 -0.34 1.02 0 0 Z " fill="#913C3B" transform="translate(289,333)"/>
<path d="M0 0 C0.66 0 1.32 0 2 0 C2 0.66 2 1.32 2 2 C2.66 2 3.32 2 4 2 C5.06528748 4.73019786 5.07998186 5.79298812 4.00390625 8.578125 C3.52824219 9.45984375 3.05257812 10.3415625 2.5625 11.25 C2.08941406 12.14203125 1.61632812 13.0340625 1.12890625 13.953125 C0.75636719 14.62859375 0.38382813 15.3040625 0 16 C-0.82638376 13.10765685 -1 11.11257569 -1 8 C-0.34 8 0.32 8 1 8 C1 7.01 1 6.02 1 5 C0.67 5 0.34 5 0 5 C0 3.35 0 1.7 0 0 Z " fill="#8C3235" transform="translate(154,178)"/>
<path d="M0 0 C2.45973778 2.45973778 2.32301675 3.29299385 2.375 6.6875 C2.29953394 11.88711145 0.94011157 14.77358962 -2 19 C-2.33 17.68 -2.66 16.36 -3 15 C-2.34 15 -1.68 15 -1 15 C-1 12.69 -1 10.38 -1 8 C-0.34 8 0.32 8 1 8 C0.67 5.36 0.34 2.72 0 0 Z " fill="#E13335" transform="translate(266,205)"/>
<path d="M0 0 C3.61246888 3.61246888 4.125 9.03845507 4.125 14 C4.08375 14.99 4.0425 15.98 4 17 C1.19358805 14.54438955 0.06421329 12.72617673 -0.265625 8.99609375 C-0.25142274 5.98876484 -0.17237569 3.00220998 0 0 Z " fill="#812425" transform="translate(402,179)"/>
<path d="M0 0 C2.97 0.495 2.97 0.495 6 1 C4.68 1.33 3.36 1.66 2 2 C2.33 3.32 2.66 4.64 3 6 C-1.34464536 5.39174965 -5.67551867 4.73832608 -10 4 C-10 3.67 -10 3.34 -10 3 C-3.25 2.875 -3.25 2.875 -1 4 C-0.67 2.68 -0.34 1.36 0 0 Z " fill="#93383A" transform="translate(320,336)"/>
<path d="M0 0 C0.66 0.33 1.32 0.66 2 1 C2.33 1.99 2.66 2.98 3 4 C5.01508358 4.73323796 5.01508358 4.73323796 7 5 C7 5.99 7 6.98 7 8 C2 6.33333333 -3 4.66666667 -8 3 C-5.50935112 2.31292445 -3.62113708 2 -1 2 C-0.67 1.34 -0.34 0.68 0 0 Z " fill="#82292A" transform="translate(265,168)"/>
<path d="M0 0 C1.32 0 2.64 0 4 0 C4 0.66 4 1.32 4 2 C4.66 2 5.32 2 6 2 C6.33 3.65 6.66 5.3 7 7 C4.03 6.505 4.03 6.505 1 6 C0.67 4.02 0.34 2.04 0 0 Z " fill="#7C0104" transform="translate(155,350)"/>
<path d="M0 0 C3.63 0 7.26 0 11 0 C10.67 1.32 10.34 2.64 10 4 C7.03 3.67 4.06 3.34 1 3 C0.67 2.01 0.34 1.02 0 0 Z " fill="#770305" transform="translate(309,336)"/>
<path d="M0 0 C0 0.66 0 1.32 0 2 C-1.60379341 2.05416188 -3.20811406 2.09286638 -4.8125 2.125 C-5.70582031 2.14820313 -6.59914062 2.17140625 -7.51953125 2.1953125 C-10 2 -10 2 -13 0 C-8.52745503 -1.49084832 -4.47254497 -1.49084832 0 0 Z " fill="#82201F" transform="translate(204,336)"/>
<path d="M0 0 C0.33 0.99 0.66 1.98 1 3 C0.360625 3.268125 -0.27875 3.53625 -0.9375 3.8125 C-3.33131686 4.88667752 -3.33131686 4.88667752 -4 8 C-7.0625 9.1875 -7.0625 9.1875 -10 10 C-8.38405168 7.95880212 -6.7143618 5.95927063 -5 4 C-4.34 4 -3.68 4 -3 4 C-3 3.34 -3 2.68 -3 2 C-2.01 1.34 -1.02 0.68 0 0 Z " fill="#8E3134" transform="translate(201,152)"/>
<path d="M0 0 C-2.98169496 2.19242277 -4.43035128 3.03350875 -8.1875 2.8125 C-11 2 -11 2 -13 0 C-11.58456585 -0.19658808 -10.16755969 -0.38187546 -8.75 -0.5625 C-7.96109375 -0.66691406 -7.1721875 -0.77132813 -6.359375 -0.87890625 C-3.99467126 -1.00027349 -2.2488963 -0.69633257 0 0 Z " fill="#8E3539" transform="translate(257,339)"/>
<path d="M0 0 C2.64 0 5.28 0 8 0 C8.33 0.99 8.66 1.98 9 3 C5.7 3.33 2.4 3.66 -1 4 C-0.67 2.68 -0.34 1.36 0 0 Z " fill="#760404" transform="translate(172,338)"/>
<path d="M0 0 C0.33 0 0.66 0 1 0 C0.85890014 2.10448938 0.71195825 4.2085877 0.5625 6.3125 C0.48128906 7.48425781 0.40007812 8.65601563 0.31640625 9.86328125 C0 13 0 13 -1 16 C-1.66 16 -2.32 16 -3 16 C-2.52013969 10.43109483 -1.70084819 5.32932432 0 0 Z " fill="#8E3334" transform="translate(330,226)"/>
<path d="M0 0 C0.66 0 1.32 0 2 0 C2.86366822 1.78710586 3.71568594 3.5798465 4.5625 5.375 C5.27599609 6.87160156 5.27599609 6.87160156 6.00390625 8.3984375 C6.33261719 9.25695312 6.66132813 10.11546875 7 11 C6.67 11.66 6.34 12.32 6 13 C3.33753193 11.66876597 3.05398348 10.3235622 1.875 7.625 C1.52179688 6.83351562 1.16859375 6.04203125 0.8046875 5.2265625 C0 3 0 3 0 0 Z " fill="#903E3D" transform="translate(395,164)"/>
<path d="M0 0 C1.32 0.66 2.64 1.32 4 2 C4 2.66 4 3.32 4 4 C4.66 4 5.32 4 6 4 C6 4.66 6 5.32 6 6 C4.25 6.6875 4.25 6.6875 2 7 C-0.25 5.6875 -0.25 5.6875 -2 4 C-2 3.34 -2 2.68 -2 2 C-1.34 2 -0.68 2 0 2 C0 1.34 0 0.68 0 0 Z " fill="#8B3232" transform="translate(380,142)"/>
<path d="M0 0 C0.66 0 1.32 0 2 0 C2.33 1.65 2.66 3.3 3 5 C3.99 5.33 4.98 5.66 6 6 C5.67 7.32 5.34 8.64 5 10 C5.66 10.33 6.32 10.66 7 11 C6.01 12.485 6.01 12.485 5 14 C4.16235732 12.04350603 3.33000941 10.08474444 2.5 8.125 C2.0359375 7.03445313 1.571875 5.94390625 1.09375 4.8203125 C0 2 0 2 0 0 Z " fill="#8F3A3B" transform="translate(174,251)"/>
<path d="M0 0 C0.66 0.66 1.32 1.32 2 2 C1.69903201 6.13830989 1.32101984 8.51847024 -1 12 C-1.66 12 -2.32 12 -3 12 C-2.01 8.04 -1.02 4.08 0 0 Z " fill="#8C3235" transform="translate(291,217)"/>
<path d="M0 0 C2 3.75 2 3.75 2 6 C2.66 6 3.32 6 4 6 C4.12375 6.804375 4.2475 7.60875 4.375 8.4375 C4.684375 9.7059375 4.684375 9.7059375 5 11 C5.66 11.33 6.32 11.66 7 12 C6.01 12 5.02 12 4 12 C2.578125 10.390625 2.578125 10.390625 1.25 8.25 C0.80140625 7.55390625 0.3528125 6.8578125 -0.109375 6.140625 C-1.16007332 3.61526236 -0.93134261 2.52143975 0 0 Z " fill="#E33C3C" transform="translate(233,213)"/>
<path d="M0 0 C1.09658936 3.28976808 0.79953138 4.71303767 0 8 C-0.66 8 -1.32 8 -2 8 C-2.33 8.99 -2.66 9.98 -3 11 C-3.66 11 -4.32 11 -5 11 C-3.92289822 6.69159287 -2.96052484 3.36423277 0 0 Z " fill="#E93133" transform="translate(237,198)"/>
<path d="M0 0 C0.33 1.32 0.66 2.64 1 4 C0.34 4 -0.32 4 -1 4 C-0.67 4.99 -0.34 5.98 0 7 C-1.65 7.33 -3.3 7.66 -5 8 C-5 8.66 -5 9.32 -5 10 C-5.66 9.67 -6.32 9.34 -7 9 C-5.625 6.5 -5.625 6.5 -4 4 C-3.34 4 -2.68 4 -2 4 C-1.34 2.68 -0.68 1.36 0 0 Z " fill="#86292C" transform="translate(190,162)"/>
<path d="M0 0 C0.66 0 1.32 0 2 0 C2 0.66 2 1.32 2 2 C2.66 2 3.32 2 4 2 C4.6875 3.75 4.6875 3.75 5 6 C3.6875 8.25 3.6875 8.25 2 10 C1.34 10 0.68 10 0 10 C0 9.01 0 8.02 0 7 C0.66 7 1.32 7 2 7 C1.34 6.01 0.68 5.02 0 4 C0 2.68 0 1.36 0 0 Z " fill="#883435" transform="translate(130,154)"/>
<path d="M0 0 C0.33 0.99 0.66 1.98 1 3 C1.66 2.67 2.32 2.34 3 2 C5.6723621 1.86584528 8.32250488 1.95681459 11 2 C11 2.33 11 2.66 11 3 C2.57142857 5.28571429 2.57142857 5.28571429 -2 5 C-1.34 3.35 -0.68 1.7 0 0 Z " fill="#882424" transform="translate(170,339)"/>
<path d="M0 0 C1.32 0.66 2.64 1.32 4 2 C2.02 2.99 2.02 2.99 0 4 C0 4.66 0 5.32 0 6 C-0.66 6 -1.32 6 -2 6 C-2 6.66 -2 7.32 -2 8 C-2.66 8 -3.32 8 -4 8 C-4 7.01 -4 6.02 -4 5 C-3.34 5 -2.68 5 -2 5 C-1.34 3.35 -0.68 1.7 0 0 Z " fill="#8E2C2E" transform="translate(270,324)"/>
<path d="M0 0 C0.99 0 1.98 0 3 0 C2.38545304 3.99455527 0.29353263 6.74466336 -2 10 C-2.33 8.68 -2.66 7.36 -3 6 C-2.34 6 -1.68 6 -1 6 C-0.67 4.02 -0.34 2.04 0 0 Z " fill="#963A3D" transform="translate(307,282)"/>
<path d="M0 0 C-0.33 0.99 -0.66 1.98 -1 3 C-5.62 3.33 -10.24 3.66 -15 4 C-11.84531378 2.42265689 -9.71638105 1.57903681 -6.375 0.875 C-5.59898437 0.70742188 -4.82296875 0.53984375 -4.0234375 0.3671875 C-2 0 -2 0 0 0 Z " fill="#8F3A3B" transform="translate(330,356)"/>
<path d="M0 0 C2.93200474 2.85276137 5.64315404 5.65079784 8 9 C4.93795671 8.66896829 3.39949096 8.39949096 1.1875 6.1875 C0 4 0 4 0 0 Z " fill="#86302F" transform="translate(216,236)"/>
<path d="M0 0 C0.66 0 1.32 0 2 0 C2 2.64 2 5.28 2 8 C1.34 8 0.68 8 0 8 C0 8.66 0 9.32 0 10 C-0.66 10 -1.32 10 -2 10 C-1.34 6.7 -0.68 3.4 0 0 Z " fill="#7D2426" transform="translate(349,220)"/>
<path d="M0 0 C-3.74525799 3.74525799 -7.98270909 3.68909949 -13 4 C-12.34 3.34 -11.68 2.68 -11 2 C-9.68 2 -8.36 2 -7 2 C-7 1.34 -7 0.68 -7 0 C-4.3333581 -1.33332095 -2.83319697 -0.67102033 0 0 Z " fill="#883132" transform="translate(328,363)"/>
<path d="M0 0 C0.66 0 1.32 0 2 0 C2.66 0.66 3.32 1.32 4 2 C4.99 2.66 5.98 3.32 7 4 C6.34 4 5.68 4 5 4 C5.66 5.65 6.32 7.3 7 9 C6.01 9.495 6.01 9.495 5 10 C3.35 6.7 1.7 3.4 0 0 Z " fill="#8D3234" transform="translate(182,270)"/>
<path d="M0 0 C1.65 0 3.3 0 5 0 C3.7508258 3.45925163 2.32472205 6.14693203 0 9 C0.020625 8.21625 0.04125 7.4325 0.0625 6.625 C0.18684063 4.01885039 0.18684063 4.01885039 -1 2 C-0.67 1.34 -0.34 0.68 0 0 Z " fill="#902F30" transform="translate(211,187)"/>
<path d="M0 0 C2.97 0.33 5.94 0.66 9 1 C6.06171403 3.50298434 3.82097239 4.46930939 0 5 C0.33 4.34 0.66 3.68 1 3 C0.67 2.01 0.34 1.02 0 0 Z " fill="#963C3F" transform="translate(306,334)"/>
<path d="M0 0 C1.32 0.66 2.64 1.32 4 2 C0.535 4.97 0.535 4.97 -3 8 C-2.67 6.35 -2.34 4.7 -2 3 C-1.34 3 -0.68 3 0 3 C0 2.01 0 1.02 0 0 Z " fill="#9B4244" transform="translate(281,314)"/>
<path d="M0 0 C2.17766075 4.35532149 2.03039555 5.46625958 1 10 C0.01 10 -0.98 10 -2 10 C-1.34 6.7 -0.68 3.4 0 0 Z " fill="#8B2B2C" transform="translate(172,192)"/>
<path d="M0 0 C1.65 0 3.3 0 5 0 C2.38485683 2.12038635 -0.19637616 4.13091744 -3 6 C-3.66 4.68 -4.32 3.36 -5 2 C-3.68 2.33 -2.36 2.66 -1 3 C-0.67 2.01 -0.34 1.02 0 0 Z " fill="#8F3E40" transform="translate(225,175)"/>
<path d="M0 0 C5.75 1.875 5.75 1.875 8 3 C8 3.66 8 4.32 8 5 C6.68 5 5.36 5 4 5 C4 4.34 4 3.68 4 3 C3.01 3.33 2.02 3.66 1 4 C0.67 2.68 0.34 1.36 0 0 Z " fill="#87292A" transform="translate(336,341)"/>
<path d="M0 0 C1.32 0.33 2.64 0.66 4 1 C3.34 2.65 2.68 4.3 2 6 C1.34 6 0.68 6 0 6 C-0.33 6.66 -0.66 7.32 -1 8 C-1.99 6.68 -2.98 5.36 -4 4 C-1.525 4.495 -1.525 4.495 1 5 C0.67 3.35 0.34 1.7 0 0 Z " fill="#914241" transform="translate(356,248)"/>
<path d="M0 0 C0.66 0.33 1.32 0.66 2 1 C1.5504955 2.31554985 1.09010284 3.62738358 0.625 4.9375 C0.36976562 5.66839844 0.11453125 6.39929688 -0.1484375 7.15234375 C-1 9 -1 9 -3 10 C-2.25 3.375 -2.25 3.375 0 0 Z " fill="#821E20" transform="translate(99,179)"/>
<path d="M0 0 C0 0.66 0 1.32 0 2 C-4.08443115 3.53166168 -7.79455657 2.63081652 -12 2 C-12 1.67 -12 1.34 -12 1 C-7.93631321 0.22596442 -4.13574827 -0.0984702 0 0 Z " fill="#9A474A" transform="translate(310,360)"/>
<path d="M0 0 C0 0.99 0 1.98 0 3 C-2.88834003 5.10770759 -4.38462395 6 -8 6 C-8 5.34 -8 4.68 -8 4 C-5.36 2.68 -2.72 1.36 0 0 Z " fill="#8E3F40" transform="translate(164,340)"/>
<path d="M0 0 C3.96 0.33 7.92 0.66 12 1 C12 1.33 12 1.66 12 2 C6.06 2.495 6.06 2.495 0 3 C0 2.01 0 1.02 0 0 Z " fill="#944B4C" transform="translate(190,360)"/>
<path d="M0 0 C2.31 0.33 4.62 0.66 7 1 C4.53721199 3.46278801 2.29323018 3.99771255 -1 5 C-0.67 3.35 -0.34 1.7 0 0 Z " fill="#7E0303" transform="translate(334,355)"/>
<path d="M0 0 C1.10844919 3.32534757 0.84454356 5.62182575 0 9 C-0.99 8.67 -1.98 8.34 -3 8 C-2.37240135 5.07120629 -1.41377341 2.63904371 0 0 Z " fill="#883B39" transform="translate(344,234)"/>
<path d="M0 0 C1.98 0 3.96 0 6 0 C5.67 1.32 5.34 2.64 5 4 C3.68 4 2.36 4 1 4 C0.67 2.68 0.34 1.36 0 0 Z " fill="#780503" transform="translate(322,338)"/>
<path d="M0 0 C0.99 0.33 1.98 0.66 3 1 C1.92598892 3.91517292 1.22189824 5.77810176 -1 8 C-1.33 7.01 -1.66 6.02 -2 5 C-1.34 5 -0.68 5 0 5 C-0.33 4.01 -0.66 3.02 -1 2 C-0.67 1.34 -0.34 0.68 0 0 Z " fill="#882E2D" transform="translate(313,272)"/>
<path d="M0 0 C0.99 0.99 1.98 1.98 3 3 C1.63016497 6.16115776 1.0109362 6.9927092 -2 9 C-1.67 7.68 -1.34 6.36 -1 5 C-0.34 5 0.32 5 1 5 C0.67 3.35 0.34 1.7 0 0 Z " fill="#7E2B2C" transform="translate(130,263)"/>
<path d="M0 0 C0.99 0.33 1.98 0.66 3 1 C2.34 3.97 1.68 6.94 1 10 C0.67 10 0.34 10 0 10 C0 6.7 0 3.4 0 0 Z " fill="#9D4A4A" transform="translate(325,243)"/>
<path d="M0 0 C0.33 0 0.66 0 1 0 C1 1.65 1 3.3 1 5 C-0.98 5.66 -2.96 6.32 -5 7 C-4.19152271 5.83054208 -3.37810888 4.66449539 -2.5625 3.5 C-2.11003906 2.8503125 -1.65757812 2.200625 -1.19140625 1.53125 C-0.79824219 1.0259375 -0.40507812 0.520625 0 0 Z " fill="#8C3230" transform="translate(283,236)"/>
<path d="M0 0 C0.99 0 1.98 0 3 0 C3.33 0.99 3.66 1.98 4 3 C2.35 4.32 0.7 5.64 -1 7 C-0.67 4.69 -0.34 2.38 0 0 Z " fill="#7C1517" transform="translate(154,240)"/>
<path d="M0 0 C-3.50538557 1.96301592 -7.13351728 2.95902388 -11 4 C-7.35237315 0.18657193 -5.28949249 -0.11498897 0 0 Z " fill="#D73636" transform="translate(250,194)"/>
<path d="M0 0 C0.66 0 1.32 0 2 0 C2.33 1.98 2.66 3.96 3 6 C1.68 5.67 0.36 5.34 -1 5 C-0.67 3.35 -0.34 1.7 0 0 Z " fill="#822021" transform="translate(363,182)"/>
</svg>
